<svg width="122" height="34" viewBox="0 0 122 34" fill="none" xmlns="http://www.w3.org/2000/svg">
<circle cx="12.3578" cy="16.5647" r="12.3578" fill="#FE5F62"/>
<path d="M47.6862 11.5427C47.6065 10.6663 47.252 9.98504 46.6225 9.49902C46.001 9.00502 45.1127 8.75803 43.9574 8.75803C43.1925 8.75803 42.5551 8.85762 42.0451 9.05681C41.5352 9.256 41.1528 9.53089 40.8978 9.88146C40.6428 10.2241 40.5114 10.6185 40.5034 11.0646C40.4875 11.4312 40.5592 11.7538 40.7185 12.0327C40.8858 12.3116 41.1249 12.5586 41.4356 12.7737C41.7543 12.9809 42.1368 13.1641 42.5829 13.3235C43.0291 13.4828 43.5311 13.6223 44.0888 13.7418L46.1923 14.2198C47.4033 14.4828 48.471 14.8333 49.3952 15.2715C50.3275 15.7098 51.1083 16.2316 51.7377 16.8372C52.3751 17.4427 52.8572 18.1399 53.1838 18.9287C53.5105 19.7175 53.6778 20.6019 53.6858 21.5819C53.6778 23.1276 53.2874 24.4542 52.5146 25.5617C51.7417 26.6692 50.6302 27.5178 49.1801 28.1074C47.738 28.697 45.9971 28.9918 43.9574 28.9918C41.9097 28.9918 40.1249 28.685 38.6031 28.0715C37.0813 27.458 35.8981 26.5258 35.0536 25.2749C34.209 24.024 33.7748 22.4424 33.7509 20.5302H39.4158C39.4636 21.319 39.6748 21.9763 40.0492 22.5022C40.4237 23.028 40.9376 23.4264 41.591 23.6973C42.2523 23.9682 43.0172 24.1036 43.8856 24.1036C44.6824 24.1036 45.3597 23.9961 45.9174 23.781C46.4831 23.5658 46.9173 23.267 47.2201 22.8846C47.5229 22.5022 47.6782 22.0639 47.6862 21.5699C47.6782 21.1078 47.5348 20.7134 47.2559 20.3868C46.9771 20.0521 46.5468 19.7653 45.9652 19.5262C45.3915 19.2793 44.6585 19.0522 43.7661 18.845L41.2085 18.2474C39.0891 17.7614 37.4199 16.9766 36.2009 15.893C34.9818 14.8015 34.3763 13.3275 34.3843 11.471C34.3763 9.95715 34.7827 8.63055 35.6033 7.49118C36.424 6.35181 37.5594 5.46342 39.0095 4.82601C40.4596 4.1886 42.1129 3.8699 43.9693 3.8699C45.8656 3.8699 47.5109 4.19259 48.9052 4.83796C50.3075 5.47537 51.3951 6.37173 52.168 7.52703C52.9408 8.68233 53.3352 10.0209 53.3512 11.5427H47.6862ZM62.5179 18.2116V28.681H56.6737V10.3237H62.2311V13.694H62.4342C62.8406 12.5705 63.5338 11.6901 64.5138 11.0527C65.4938 10.4073 66.6611 10.0846 68.0155 10.0846C69.3063 10.0846 70.4257 10.3755 71.3739 10.9571C72.33 11.5308 73.071 12.3355 73.5969 13.3713C74.1307 14.3991 74.3936 15.6022 74.3857 16.9806V28.681H68.5414V18.1279C68.5494 17.1081 68.2904 16.3113 67.7646 15.7377C67.2467 15.164 66.5256 14.8772 65.6014 14.8772C64.9879 14.8772 64.4461 15.0126 63.976 15.2835C63.5139 15.5464 63.1553 15.9249 62.9003 16.4189C62.6533 16.9129 62.5259 17.5104 62.5179 18.2116ZM78.0039 28.681V10.3237H83.8482V28.681H78.0039ZM80.932 8.18436C80.1114 8.18436 79.4062 7.91346 78.8166 7.37166C78.227 6.8219 77.9322 6.16059 77.9322 5.38773C77.9322 4.62284 78.227 3.96949 78.8166 3.4277C79.4062 2.87793 80.1114 2.60305 80.932 2.60305C81.7607 2.60305 82.4658 2.87793 83.0474 3.4277C83.637 3.96949 83.9318 4.62284 83.9318 5.38773C83.9318 6.16059 83.637 6.8219 83.0474 7.37166C82.4658 7.91346 81.7607 8.18436 80.932 8.18436Z" fill="white"/>
<path d="M98.0016 10.3237V14.6262H86.1936V10.3237H98.0016ZM88.6556 28.681V9.39145C88.6556 7.97322 88.9225 6.798 89.4564 5.86579C89.9902 4.92561 90.7312 4.22446 91.6793 3.76234C92.6275 3.29225 93.723 3.0572 94.966 3.0572C95.7787 3.0572 96.5436 3.12094 97.2607 3.24843C97.9857 3.36794 98.5235 3.4755 98.8741 3.57112L97.9419 7.84972C97.7268 7.77801 97.4638 7.71825 97.1531 7.67045C96.8503 7.62264 96.5635 7.59874 96.2926 7.59874C95.6074 7.59874 95.1373 7.75012 94.8823 8.05289C94.6274 8.35566 94.4999 8.76998 94.4999 9.29584V28.681H88.6556ZM111.247 10.3237V14.6262H99.4388V10.3237H111.247ZM101.901 28.681V9.39145C101.901 7.97322 102.168 6.798 102.702 5.86579C103.235 4.92561 103.976 4.22446 104.924 3.76234C105.873 3.29225 106.968 3.0572 108.211 3.0572C109.024 3.0572 109.789 3.12094 110.506 3.24843C111.231 3.36794 111.769 3.4755 112.119 3.57112L111.187 7.84972C110.972 7.77801 110.709 7.71825 110.398 7.67045C110.095 7.62264 109.809 7.59874 109.538 7.59874C108.853 7.59874 108.382 7.75012 108.127 8.05289C107.873 8.35566 107.745 8.76998 107.745 9.29584V28.681H101.901ZM114.058 28.681V10.3237H119.903V28.681H114.058ZM116.986 8.18436C116.166 8.18436 115.461 7.91346 114.871 7.37166C114.281 6.8219 113.987 6.16059 113.987 5.38773C113.987 4.62284 114.281 3.96949 114.871 3.4277C115.461 2.87793 116.166 2.60305 116.986 2.60305C117.815 2.60305 118.52 2.87793 119.102 3.4277C119.691 3.96949 119.986 4.62284 119.986 5.38773C119.986 6.16059 119.691 6.8219 119.102 7.37166C118.52 7.91346 117.815 8.18436 116.986 8.18436Z" fill="#FE5F62"/>
</svg>
