<svg width="136" height="38" viewBox="0 0 136 38" fill="none" xmlns="http://www.w3.org/2000/svg">
<circle cx="13.7759" cy="19" r="13.7759" fill="#FE5F62"/>
<path d="M52.4783 14.3056C52.393 13.3681 52.0138 12.6394 51.3405 12.1195C50.6757 11.5911 49.7254 11.3269 48.4896 11.3269C47.6714 11.3269 46.9896 11.4334 46.4442 11.6465C45.8987 11.8595 45.4896 12.1536 45.2169 12.5286C44.9442 12.895 44.8035 13.3169 44.795 13.7942C44.778 14.1862 44.8547 14.5314 45.0251 14.8297C45.2041 15.128 45.4598 15.3922 45.7922 15.6223C46.1331 15.8439 46.5422 16.0399 47.0194 16.2104C47.4967 16.3808 48.0336 16.53 48.6302 16.6578L50.8802 17.1692C52.1757 17.4504 53.3177 17.8254 54.3064 18.2942C55.3035 18.7629 56.1388 19.3212 56.8121 19.9689C57.4939 20.6166 58.0095 21.3624 58.3589 22.2061C58.7084 23.0499 58.8873 23.9959 58.8959 25.0442C58.8873 26.6976 58.4697 28.1166 57.643 29.3013C56.8163 30.486 55.6274 31.3936 54.0763 32.0243C52.5336 32.655 50.6714 32.9703 48.4896 32.9703C46.2993 32.9703 44.3902 32.6422 42.7623 31.986C41.1345 31.3297 39.8689 30.3325 38.9655 28.9945C38.0621 27.6564 37.5976 25.9646 37.572 23.9192H43.6317C43.6828 24.7629 43.9086 25.4661 44.3092 26.0286C44.7098 26.5911 45.2595 27.0172 45.9584 27.307C46.6657 27.5967 47.4839 27.7416 48.4129 27.7416C49.2652 27.7416 49.9896 27.6266 50.5862 27.3965C51.1913 27.1663 51.6558 26.8467 51.9797 26.4377C52.3035 26.0286 52.4697 25.5598 52.4783 25.0314C52.4697 24.5371 52.3163 24.1152 52.018 23.7658C51.7197 23.4078 51.2595 23.101 50.6373 22.8453C50.0237 22.5811 49.2396 22.3382 48.2851 22.1166L45.5493 21.4774C43.2822 20.9575 41.4967 20.1181 40.1927 18.959C38.8888 17.7913 38.241 16.2146 38.2496 14.2288C38.241 12.6095 38.6757 11.1905 39.5535 9.97175C40.4314 8.753 41.6459 7.80271 43.197 7.12089C44.7481 6.43908 46.5166 6.09817 48.5024 6.09817C50.5308 6.09817 52.2907 6.44334 53.7822 7.13368C55.2822 7.8155 56.4456 8.7743 57.2723 10.0101C58.099 11.2459 58.5209 12.6777 58.5379 14.3056H52.4783ZM68.3433 21.4391V32.6379H62.0919V13.0016H68.0365V16.6067H68.2538C68.6885 15.405 69.43 14.4632 70.4782 13.7814C71.5265 13.0911 72.7751 12.7459 74.224 12.7459C75.6047 12.7459 76.8021 13.057 77.8163 13.6791C78.839 14.2928 79.6317 15.1536 80.1942 16.2615C80.7652 17.3609 81.0464 18.6479 81.0379 20.1223V32.6379H74.7865V21.3496C74.795 20.2587 74.518 19.4064 73.9555 18.7928C73.4015 18.1791 72.6302 17.8723 71.6416 17.8723C70.9854 17.8723 70.4058 18.0172 69.903 18.307C69.4086 18.5882 69.0251 18.9931 68.7524 19.5215C68.4882 20.0499 68.3518 20.6891 68.3433 21.4391ZM84.9083 32.6379V13.0016H91.1597V32.6379H84.9083ZM88.0404 10.7132C87.1626 10.7132 86.4083 10.4235 85.7776 9.8439C85.1469 9.25584 84.8316 8.54845 84.8316 7.72175C84.8316 6.90356 85.1469 6.2047 85.7776 5.62515C86.4083 5.03709 87.1626 4.74305 88.0404 4.74305C88.9268 4.74305 89.681 5.03709 90.3032 5.62515C90.9339 6.2047 91.2492 6.90356 91.2492 7.72175C91.2492 8.54845 90.9339 9.25584 90.3032 9.8439C89.681 10.4235 88.9268 10.7132 88.0404 10.7132Z" fill="#3F3D56"/>
<path d="M106.299 13.0016V17.6038H93.6686V13.0016H106.299ZM96.3021 32.6379V12.0044C96.3021 10.4874 96.5876 9.23027 97.1586 8.23311C97.7297 7.22743 98.5223 6.47743 99.5365 5.98311C100.551 5.48027 101.723 5.22885 103.052 5.22885C103.921 5.22885 104.74 5.29703 105.507 5.43339C106.282 5.56123 106.858 5.67629 107.233 5.77856L106.235 10.3553C106.005 10.2786 105.724 10.2146 105.392 10.1635C105.068 10.1124 104.761 10.0868 104.471 10.0868C103.738 10.0868 103.235 10.2487 102.963 10.5726C102.69 10.8965 102.554 11.3396 102.554 11.9021V32.6379H96.3021ZM120.467 13.0016V17.6038H107.837V13.0016H120.467ZM110.47 32.6379V12.0044C110.47 10.4874 110.756 9.23027 111.327 8.23311C111.898 7.22743 112.69 6.47743 113.704 5.98311C114.719 5.48027 115.891 5.22885 117.22 5.22885C118.089 5.22885 118.908 5.29703 119.675 5.43339C120.45 5.56123 121.025 5.67629 121.4 5.77856L120.403 10.3553C120.173 10.2786 119.892 10.2146 119.56 10.1635C119.236 10.1124 118.929 10.0868 118.639 10.0868C117.906 10.0868 117.403 10.2487 117.131 10.5726C116.858 10.8965 116.722 11.3396 116.722 11.9021V32.6379H110.47ZM123.475 32.6379V13.0016H129.726V32.6379H123.475ZM126.607 10.7132C125.729 10.7132 124.975 10.4235 124.344 9.8439C123.713 9.25584 123.398 8.54845 123.398 7.72175C123.398 6.90356 123.713 6.2047 124.344 5.62515C124.975 5.03709 125.729 4.74305 126.607 4.74305C127.493 4.74305 128.247 5.03709 128.87 5.62515C129.5 6.2047 129.816 6.90356 129.816 7.72175C129.816 8.54845 129.5 9.25584 128.87 9.8439C128.247 10.4235 127.493 10.7132 126.607 10.7132Z" fill="#FE5F62"/>
</svg>
