<svg width="28" height="28" viewBox="0 0 28 28" fill="none" xmlns="http://www.w3.org/2000/svg">
<g clip-path="url(#clip0_118_825)">
<path d="M13.6066 0C6.09193 0 0 6.09193 0 13.6066C0 19.9875 4.39329 25.3419 10.3198 26.8125V17.7647H7.51409V13.6066H10.3198V11.8148C10.3198 7.18372 12.4157 5.03715 16.9625 5.03715C17.8246 5.03715 19.3121 5.20641 19.9205 5.37513V9.14415C19.5994 9.11041 19.0416 9.09354 18.3487 9.09354C16.1178 9.09354 15.2557 9.93877 15.2557 12.136V13.6066H19.7001L18.9365 17.7647H15.2557V27.1135C21.9931 26.2998 27.2137 20.5633 27.2137 13.6066C27.2131 6.09193 21.1212 0 13.6066 0Z" fill="white"/>
</g>
<defs>
<clipPath id="clip0_118_825">
<rect width="27.2131" height="27.2131" fill="white"/>
</clipPath>
</defs>
</svg>
