<svg width="28" height="28" viewBox="0 0 28 28" fill="none" xmlns="http://www.w3.org/2000/svg">
<g clip-path="url(#clip0_118_831)">
<path d="M25.9858 0H2.7962C1.68535 0 0.787109 0.876985 0.787109 1.96126V25.2465C0.787109 26.3308 1.68535 27.2131 2.7962 27.2131H25.9858C27.0967 27.2131 28.0002 26.3308 28.0002 25.2519V1.96126C28.0002 0.876985 27.0967 0 25.9858 0ZM8.86069 23.1896H4.82124V10.1996H8.86069V23.1896ZM6.84097 8.42969C5.54409 8.42969 4.49702 7.38262 4.49702 6.09106C4.49702 4.7995 5.54409 3.75243 6.84097 3.75243C8.13253 3.75243 9.17959 4.7995 9.17959 6.09106C9.17959 7.37731 8.13253 8.42969 6.84097 8.42969ZM23.9767 23.1896H19.9426V16.8753C19.9426 15.3712 19.916 13.4312 17.8431 13.4312C15.7437 13.4312 15.4248 15.0735 15.4248 16.769V23.1896H11.396V10.1996H15.2653V11.9748H15.3185C15.8553 10.9543 17.1734 9.87539 19.1347 9.87539C23.222 9.87539 23.9767 12.5648 23.9767 16.0621V23.1896Z" fill="white"/>
</g>
<defs>
<clipPath id="clip0_118_831">
<rect width="27.2131" height="27.2131" fill="white" transform="translate(0.787109)"/>
</clipPath>
</defs>
</svg>
