<svg width="28" height="28" viewBox="0 0 28 28" fill="none" xmlns="http://www.w3.org/2000/svg">
<g clip-path="url(#clip0_118_829)">
<path d="M27.4665 8.16398C27.4665 8.16398 27.2007 6.28777 26.3822 5.46393C25.3458 4.37966 24.1871 4.37434 23.6556 4.31056C19.85 4.03418 14.1363 4.03418 14.1363 4.03418H14.1257C14.1257 4.03418 8.41197 4.03418 4.60638 4.31056C4.07488 4.37434 2.91619 4.37966 1.87975 5.46393C1.06124 6.28777 0.800797 8.16398 0.800797 8.16398C0.800797 8.16398 0.524414 10.3697 0.524414 12.5702V14.6324C0.524414 16.8328 0.795482 19.0386 0.795482 19.0386C0.795482 19.0386 1.06124 20.9148 1.87444 21.7387C2.91088 22.8229 4.27153 22.7857 4.87745 22.9027C7.05663 23.1099 14.131 23.1737 14.131 23.1737C14.131 23.1737 19.85 23.1631 23.6556 22.892C24.1871 22.8282 25.3458 22.8229 26.3822 21.7387C27.2007 20.9148 27.4665 19.0386 27.4665 19.0386C27.4665 19.0386 27.7375 16.8382 27.7375 14.6324V12.5702C27.7375 10.3697 27.4665 8.16398 27.4665 8.16398ZM11.3193 17.1358V9.48743L18.67 13.3249L11.3193 17.1358Z" fill="white"/>
</g>
<defs>
<clipPath id="clip0_118_829">
<rect width="27.2131" height="27.2131" fill="white" transform="translate(0.524414)"/>
</clipPath>
</defs>
</svg>
